<svg xmlns="http://www.w3.org/2000/svg" viewBox="0 0 20.72 19.19"><defs><style>.cls-1{fill:#00892f;}</style></defs><title>date_green</title><g id="Слой_2" data-name="Слой 2"><g id="Сетка"><path class="cls-1" d="M18.29,1.67H15.38V.36a.36.36,0,1,0-.73,0V1.67H10.72V.36a.36.36,0,1,0-.73,0V1.67H6.06V.36a.36.36,0,1,0-.73,0V1.67H2.43A2.43,2.43,0,0,0,0,4.1V16.76a2.43,2.43,0,0,0,2.43,2.43H18.29a2.43,2.43,0,0,0,2.43-2.43V4.1A2.43,2.43,0,0,0,18.29,1.67ZM20,16.76a1.71,1.71,0,0,1-1.7,1.7H2.43a1.71,1.71,0,0,1-1.7-1.7V4.1a1.7,1.7,0,0,1,1.7-1.7H5.34V3a.36.36,0,0,0,.73,0V2.4H10V3a.36.36,0,0,0,.73,0V2.4h3.93V3a.36.36,0,1,0,.73,0V2.4h2.91A1.7,1.7,0,0,1,20,4.1Z"/><path class="cls-1" d="M9.19,7H7.62a.36.36,0,0,0,0,.73H9.19a.36.36,0,0,0,0-.73Z"/><path class="cls-1" d="M13.1,7H11.53a.36.36,0,0,0,0,.73H13.1a.36.36,0,1,0,0-.73Z"/><path class="cls-1" d="M17,7H15.43a.36.36,0,0,0,0,.73H17A.36.36,0,0,0,17,7Z"/><path class="cls-1" d="M9.19,10.63H7.62a.36.36,0,1,0,0,.73H9.19a.36.36,0,1,0,0-.73Z"/><path class="cls-1" d="M13.1,10.63H11.53a.36.36,0,1,0,0,.73H13.1a.36.36,0,1,0,0-.73Z"/><path class="cls-1" d="M17,10.63H15.43a.36.36,0,1,0,0,.73H17a.36.36,0,1,0,0-.73Z"/><path class="cls-1" d="M5.28,10.63H3.71a.36.36,0,1,0,0,.73H5.28a.36.36,0,1,0,0-.73Z"/><path class="cls-1" d="M9.19,14.25H7.62a.36.36,0,1,0,0,.73H9.19a.36.36,0,1,0,0-.73Z"/><path class="cls-1" d="M13.1,14.25H11.53a.36.36,0,0,0,0,.73H13.1a.36.36,0,1,0,0-.73Z"/><path class="cls-1" d="M5.28,14.25H3.71a.36.36,0,1,0,0,.73H5.28a.36.36,0,1,0,0-.73Z"/></g></g></svg>