<svg xmlns="http://www.w3.org/2000/svg" viewBox="0 0 14.19 25"><defs><style>.cls-1{fill:#fff;}</style></defs><title>facebook</title><g id="Слой_2" data-name="Слой 2"><g id="Сетка"><path class="cls-1" d="M8.76,25h-4a1.21,1.21,0,0,1-1.21-1.21v-9H1.21A1.21,1.21,0,0,1,0,13.54V9.68A1.21,1.21,0,0,1,1.21,8.46H3.55V6.52A6.6,6.6,0,0,1,5.29,1.8,6.28,6.28,0,0,1,9.93,0H13a1.21,1.21,0,0,1,1.21,1.21V4.81A1.21,1.21,0,0,1,13,6H10.92c-.63,0-.79.13-.82.16s-.12.24-.12.74V8.46h2.85a1.23,1.23,0,0,1,.6.15A1.22,1.22,0,0,1,14,9.68v3.87a1.21,1.21,0,0,1-1.21,1.21H10v9A1.21,1.21,0,0,1,8.76,25ZM5,23.53h3.5V14.1a.81.81,0,0,1,.81-.81h3.26V9.93H9.32a.81.81,0,0,1-.81-.81V6.93A2.5,2.5,0,0,1,9,5.22a2.48,2.48,0,0,1,1.92-.66h1.8V1.47H9.92C6.9,1.47,5,3.4,5,6.52V9.12a.81.81,0,0,1-.81.81H1.47v3.36H4.2A.81.81,0,0,1,5,14.1ZM13,1.47h0Z"/></g></g></svg>