<svg xmlns="http://www.w3.org/2000/svg" viewBox="0 0 19 19"><defs><style>.cls-1{fill:#fff;}</style></defs><title>instagram</title><g id="Слой_2" data-name="Слой 2"><g id="Сетка"><path class="cls-1" d="M19,5.59a6.94,6.94,0,0,0-.44-2.31A4.87,4.87,0,0,0,15.73.5,7,7,0,0,0,13.42.06C12.41,0,12.08,0,9.5,0S6.6,0,5.59.06A7,7,0,0,0,3.28.5,4.64,4.64,0,0,0,1.6,1.6,4.68,4.68,0,0,0,.5,3.28,7,7,0,0,0,.06,5.58C0,6.6,0,6.92,0,9.5s0,2.9.06,3.92A6.94,6.94,0,0,0,.5,15.73a4.87,4.87,0,0,0,2.78,2.78,7,7,0,0,0,2.31.44c1,0,1.34.06,3.92.06s2.9,0,3.92-.06a6.94,6.94,0,0,0,2.31-.44,4.86,4.86,0,0,0,2.78-2.78,7,7,0,0,0,.44-2.31c0-1,.06-1.34.06-3.92S19,6.6,19,5.59Zm-1.71,7.76a5.21,5.21,0,0,1-.33,1.76,3.15,3.15,0,0,1-1.8,1.8,5.23,5.23,0,0,1-1.76.33c-1,0-1.3.06-3.84.06s-2.84,0-3.84-.06a5.21,5.21,0,0,1-1.76-.33,2.92,2.92,0,0,1-1.09-.71,3,3,0,0,1-.71-1.09,5.23,5.23,0,0,1-.33-1.76c0-1-.06-1.3-.06-3.84s0-2.84.06-3.84A5.21,5.21,0,0,1,2.1,3.91a2.89,2.89,0,0,1,.71-1.09,3,3,0,0,1,1.09-.71,5.23,5.23,0,0,1,1.76-.33c1,0,1.3-.06,3.84-.06s2.84,0,3.84.06a5.21,5.21,0,0,1,1.76.33,2.92,2.92,0,0,1,1.09.71,3,3,0,0,1,.71,1.09,5.23,5.23,0,0,1,.33,1.76c0,1,.06,1.3.06,3.84S17.28,12.34,17.24,13.35Z"/><path class="cls-1" d="M9.5,4.62A4.88,4.88,0,1,0,14.39,9.5,4.88,4.88,0,0,0,9.5,4.62Zm0,8A3.17,3.17,0,1,1,12.67,9.5,3.17,3.17,0,0,1,9.5,12.67Z"/><path class="cls-1" d="M15.72,4.43a1.14,1.14,0,1,1-1.14-1.14A1.14,1.14,0,0,1,15.72,4.43Z"/></g></g></svg>