<svg xmlns="http://www.w3.org/2000/svg" viewBox="0 0 19.61 28"><defs><style>.cls-1{fill:#00892f;}</style></defs><title>location</title><g id="Слой_2" data-name="Слой 2"><g id="Сетка"><path class="cls-1" d="M9.81,6.84a3.58,3.58,0,1,0,3.58,3.58A3.58,3.58,0,0,0,9.81,6.84Zm0,6.14a2.56,2.56,0,1,1,2.56-2.56A2.56,2.56,0,0,1,9.81,13Z"/><path class="cls-1" d="M16.74,2.87a9.81,9.81,0,0,0-13.87,0A11.17,11.17,0,0,0,2,16.65L9.81,28l7.84-11.33A11.17,11.17,0,0,0,16.74,2.87Zm.08,13.2-7,10.13-7-10.15A10.09,10.09,0,0,1,3.6,3.6,8.78,8.78,0,0,1,16,3.6,10.1,10.1,0,0,1,16.82,16.07Z"/></g></g></svg>