<svg xmlns="http://www.w3.org/2000/svg" viewBox="0 0 28 19.91"><defs><style>.cls-1{fill:#00892f;}</style></defs><title>mail</title><g id="Слой_2" data-name="Слой 2"><g id="Сетка"><path class="cls-1" d="M22.67,15.37a.45.45,0,0,1-.31-.12l-5.2-4.87a.45.45,0,1,1,.62-.66L23,14.59a.45.45,0,0,1-.31.78Z"/><path class="cls-1" d="M5.33,15.37A.45.45,0,0,1,5,14.59l5.2-4.87a.45.45,0,1,1,.62.66l-5.2,4.87A.45.45,0,0,1,5.33,15.37Z"/><path class="cls-1" d="M25.74,19.91H2.26A2.26,2.26,0,0,1,0,17.65V2.26A2.26,2.26,0,0,1,2.26,0H25.74A2.26,2.26,0,0,1,28,2.26V17.65A2.26,2.26,0,0,1,25.74,19.91ZM2.26.9A1.36,1.36,0,0,0,.9,2.26V17.65A1.36,1.36,0,0,0,2.26,19H25.74a1.36,1.36,0,0,0,1.35-1.35V2.26A1.36,1.36,0,0,0,25.74.9Z"/><path class="cls-1" d="M14,12.22a2.52,2.52,0,0,1-1.66-.6L.75,1.51A.45.45,0,1,1,1.34.83L12.94,10.94a1.69,1.69,0,0,0,2.13,0L26.64.85a.45.45,0,1,1,.59.68L15.66,11.62A2.52,2.52,0,0,1,14,12.22Z"/></g></g></svg>