<svg xmlns="http://www.w3.org/2000/svg" viewBox="0 0 28 28"><defs><style>.cls-1{fill:#fff;}</style></defs><title>phone_white</title><g id="Слой_2" data-name="Слой 2"><g id="Сетка"><path class="cls-1" d="M22.5,28a12,12,0,0,1-4.12-.88A30.9,30.9,0,0,1,8,20,30.93,30.93,0,0,1,.87,9.61C-.29,6.53-.29,4,.87,2.84l.51-.53C2.44,1.2,3.63-.05,5.22,0A4.59,4.59,0,0,1,8.45,2.07c3.2,4,1.76,5.4.09,7l-.29.29c-.27.27-.79,1.54,4,6.34a26.62,26.62,0,0,0,4,3.41c.67.44,1.88,1.1,2.37.6l.3-.3c1.64-1.67,3.06-3.1,7,.09A4.59,4.59,0,0,1,28,22.79c.06,1.58-1.2,2.78-2.31,3.84l-.53.51A3.67,3.67,0,0,1,22.5,28ZM5.1.94C4,.94,3,2,2.06,3l-.53.55c-.86.86-.78,3.13.22,5.78a30,30,0,0,0,6.9,10.06,30,30,0,0,0,10.06,6.9c2.65,1,4.91,1.08,5.78.22l.55-.53c1-.92,2.06-2,2-3.12a3.81,3.81,0,0,0-1.72-2.54c-3.31-2.67-4.24-1.72-5.78-.17l-.3.3c-.73.74-1.93.57-3.55-.48a27.5,27.5,0,0,1-4.12-3.53c-4-4-5.26-6.42-4-7.67l.3-.3C9.44,6.91,10.38,6,7.72,2.66A3.82,3.82,0,0,0,5.18.94Z"/></g></g></svg>